<?xml version="1.0" encoding="UTF-8" standalone="no"?>
<svg
   xmlns:dc="http://purl.org/dc/elements/1.1/"
   xmlns:cc="http://creativecommons.org/ns#"
   xmlns:rdf="http://www.w3.org/1999/02/22-rdf-syntax-ns#"
   xmlns:svg="http://www.w3.org/2000/svg"
   xmlns="http://www.w3.org/2000/svg"
   xmlns:sodipodi="http://sodipodi.sourceforge.net/DTD/sodipodi-0.dtd"
   xmlns:inkscape="http://www.inkscape.org/namespaces/inkscape"
   inkscape:export-ydpi="96"
   inkscape:export-xdpi="96"
   inkscape:export-filename="/home/guido/Pictures/logo-calistep-step-by-step.png"
   width="338.40207mm"
   height="99.165947mm"
   viewBox="0 0 338.40207 99.165945"
   version="1.1"
   id="svg8"
   inkscape:version="1.0 (6e3e5246a0, 2020-05-07)"
   sodipodi:docname="logo-calistep-step-by-step.svg">
  <defs
     id="defs2" />
  <sodipodi:namedview
     id="base"
     pagecolor="#ffffff"
     bordercolor="#666666"
     borderopacity="1.0"
     inkscape:pageopacity="0.0"
     inkscape:pageshadow="2"
     inkscape:zoom="1.359656"
     inkscape:cx="485.04915"
     inkscape:cy="128.5618"
     inkscape:document-units="mm"
     inkscape:current-layer="layer1"
     inkscape:document-rotation="0"
     showgrid="false"
     units="mm"
     fit-margin-top="0"
     fit-margin-left="0"
     fit-margin-right="0"
     fit-margin-bottom="0"
     inkscape:window-width="1920"
     inkscape:window-height="1016"
     inkscape:window-x="0"
     inkscape:window-y="27"
     inkscape:window-maximized="1" />
  <metadata
     id="metadata5">
    <rdf:RDF>
      <cc:Work
         rdf:about="">
        <dc:format>image/svg+xml</dc:format>
        <dc:type
           rdf:resource="http://purl.org/dc/dcmitype/StillImage" />
        <dc:title></dc:title>
      </cc:Work>
    </rdf:RDF>
  </metadata>
  <g
     inkscape:label="Layer 1"
     inkscape:groupmode="layer"
     id="layer1"
     transform="translate(71.560979,157.87035)">
    <path
       id="path658"
       d="m 2.7738502,-58.996189 c -1.44674,-0.409078 -2.76647999,-1.195298 -3.77359999,-2.248072 -0.65771001,-0.687523 -0.69090001,-0.798063 -0.28623001,-0.953347 0.30647001,-0.117604 0.72720001,0.07976 1.27314001,0.597249 1.46805999,1.391553 2.45153999,1.739527 4.91642999,1.739527 2.35827,0 3.41157,-0.342135 4.72149,-1.533644 1.5591598,-1.418206 1.8530598,-3.778916 0.6486798,-5.210248 -0.9842498,-1.16972 -2.0337198,-1.54372 -5.1703798,-1.84258 -4.44598999,-0.42362 -6.28996,-1.77324 -6.28085,-4.59702 0.006,-1.98135 0.82570001,-3.26508 2.69355,-4.22033 1.91196,-0.97782 4.47983,-1.04303 6.51953,-0.16557 1.62996,0.70118 2.6628798,1.71252 2.2108098,2.1646 -0.23995,0.23995 -0.4820098,0.14961 -1.0453498,-0.3901 -1.62833,-1.56003 -5.08675,-2.00244 -7.20249,-0.92135 -1.65495999,0.84565 -2.25435999,1.77554 -2.25435999,3.49735 0,2.35597 1.28992999,3.25331 5.15936999,3.58917 3.22512,0.27993 4.45371,0.67837 5.5873798,1.81204 3.35563,3.355638 0.4194,8.54925 -5.0442998,8.92236 -0.80802,0.05518 -2.01079,-0.05284 -2.67282,-0.240035 z m 131.7625098,-0.01572 c -2.17318,-0.58611 -4.63897,-2.501763 -4.01867,-3.122065 0.22417,-0.224163 0.53982,-0.09022 1.24361,0.527725 1.70001,1.492625 2.4365,1.747911 5.06699,1.756344 2.31728,0.0074 2.46295,-0.02762 3.74164,-0.900192 1.64972,-1.125763 2.18159,-1.998031 2.18159,-3.577813 0,-2.693324 -1.45502,-3.721504 -5.80067,-4.098974 -4.4598,-0.38738 -6.37497,-1.77655 -6.36581,-4.61744 0.006,-1.98136 0.8257,-3.26508 2.69355,-4.22033 1.25354,-0.64109 1.80338,-0.76279 3.37932,-0.74796 2.03957,0.0192 4.06429,0.75151 5.26411,1.90396 0.54552,0.52399 0.57203,0.63104 0.20686,0.8354 -0.29241,0.16364 -0.57686,0.0764 -0.94236,-0.28913 -0.94557,-0.94558 -2.2423,-1.42886 -4.16927,-1.55386 -1.56297,-0.10139 -2.1029,-0.0238 -3.06015,0.43956 -1.35886,0.65781 -2.31808,2.13208 -2.31808,3.56277 0,2.34485 1.36628,3.27235 5.36523,3.64219 4.53523,0.41945 6.51616,1.77717 6.75259,4.628208 0.343,4.136191 -4.39528,7.132976 -9.22048,5.831607 z M 22.366091,-67.911964 v -8.99584 h -3.30729 c -2.76342,0 -3.30729,-0.0653 -3.30729,-0.39687 0,-0.34298 0.97014,-0.39688 7.14375,-0.39688 6.10909,0 7.14375,0.0563 7.14375,0.38897 0,0.31803 -0.61527,0.40248 -3.37344,0.46302 l -3.37344,0.074 -0.0697,8.92969 c -0.06,7.694369 -0.12408,8.929693 -0.46302,8.929693 -0.34037,0 -0.39335,-1.2117 -0.39335,-8.995833 z m 13.49375,-0.39688 v -9.39271 h 5.02709 c 4.25639,0 5.02708,0.0599 5.02708,0.39063 0,0.32635 -0.74255,0.40254 -4.51262,0.46302 l -4.51262,0.0724 -0.0186,3.57188 -0.0185,3.57187 4.39888,0.0725 c 4.16137,0.0686 4.39888,0.10043 4.39888,0.58892 0,0.48846 -0.23746,0.52029 -4.39301,0.58891 l -4.393,0.0725 10e-6,4.101047 1e-5,4.101041 4.52529,0.07239 c 4.30645,0.0689 4.52528,0.09768 4.52528,0.595313 0,0.502489 -0.19641,0.52292 -5.02708,0.52292 h -5.02709 z m 17.20464,0 0.0177,-9.39271 h 3.52642 c 3.71653,0 5.0217,0.26789 6.52682,1.33963 2.39624,1.70627 2.50525,6.48277 0.19711,8.63577 -1.20717,1.12602 -2.56507,1.50666 -5.90912,1.6564 l -3.175,0.142164 -0.0738,3.505729 c -0.0695,3.299746 -0.10478,3.50573 -0.60079,3.50573 -0.51667,0 -0.52662,-0.183555 -0.50929,-9.392713 z m 8.38239,0.71621 c 0.7202,-0.37724 1.36095,-1.00601 1.81538,-1.78143 0.61328,-1.04649 0.68953,-1.42465 0.60148,-2.98293 -0.1185,-2.09714 -0.73574,-3.16367 -2.26794,-3.91877 -0.80226,-0.39537 -1.6186,-0.49234 -4.1724,-0.49564 l -3.175,-0.004 -0.0726,4.62091 c -0.04,2.5415 -0.009,4.78674 0.0688,4.98941 0.11271,0.29373 0.74484,0.3469 3.11535,0.26204 2.41415,-0.0864 3.18345,-0.21621 4.087,-0.68949 z m 19.12756,-0.69142 v -9.4175 h 4.32401 c 3.99329,0 4.4132,0.0464 5.49011,0.60689 1.91982,0.99917 2.86326,3.57135 2.07591,5.65975 -0.15445,0.40965 -0.65406,1.13178 -1.11024,1.60472 -0.57344,0.59451 -0.70317,0.8599 -0.42035,0.8599 0.63386,0 2.54402,1.49327 2.95474,2.30988 1.30086,2.58641 0.30577,5.643081 -2.28315,7.013271 -1.00777,0.533365 -1.5626,0.595865 -6.07009,0.683799 l -4.96094,0.09678 z m 10.47722,7.805444 c 2.23749,-1.016148 3.19358,-3.939148 1.91213,-5.845854 -1.14765,-1.70762 -2.13754,-1.98438 -7.09768,-1.98438 h -4.36563 l -0.0737,3.824294 c -0.0406,2.103361 -0.0145,3.978595 0.0578,4.167188 0.1002,0.261114 1.12748,0.341511 4.30708,0.337087 3.49874,-0.0049 4.35126,-0.08564 5.26,-0.498335 z m -1.23561,-9.484284 c 1.38502,-0.70624 1.97545,-1.68596 1.95202,-3.23903 -0.0253,-1.67499 -0.5935,-2.55283 -2.07735,-3.20921 -0.99033,-0.43807 -1.66658,-0.50148 -4.67405,-0.43827 l -3.51619,0.0739 -0.0736,3.63802 -0.0736,3.63802 3.77778,-5.3e-4 c 3.07372,-2.6e-4 3.94686,-0.0866 4.68502,-0.46302 z m 17.481309,7.138308 v -3.908448 l -3.71719,-5.35616 c -3.30018,-4.75526 -3.910629,-5.87694 -3.19845,-5.87694 0.10829,0 0.71563,0.74414 1.34964,1.65365 3.77057,5.40894 5.95175,8.40052 6.12486,8.40052 0.10857,0 0.54382,-0.50602 0.96723,-1.12448 2.56679,-3.74925 6.21843,-8.80933 6.40651,-8.87751 0.86187,-0.31243 0.0793,1.14515 -3.16149,5.88834 l -3.71278,5.43402 v 3.837731 c 0,3.661342 -0.0243,3.837732 -0.52917,3.837732 -0.50528,0 -0.52916,-0.17639 -0.52916,-3.908455 z m 46.83125,-5.087378 v -8.99584 h -3.32934 c -2.54581,0 -3.30342,-0.0778 -3.21921,-0.33072 0.0836,-0.25117 1.80742,-0.34769 7.1658,-0.4012 6.16008,-0.0615 7.05567,-0.0195 7.05567,0.33073 0,0.33714 -0.52803,0.40119 -3.30729,0.40119 h -3.30729 v 8.99584 c 0,8.819443 -0.0104,8.995833 -0.52917,8.995833 -0.51879,0 -0.52917,-0.17639 -0.52917,-8.995833 z m 13.49375,-0.39688 v -9.39271 h 5.15938 c 4.40972,0 5.15937,0.0577 5.15937,0.39688 0,0.33766 -0.69085,0.39687 -4.6302,0.39687 h -4.63021 v 3.70417 3.70417 h 4.49791 c 4.32153,0 4.49792,0.0207 4.49792,0.52917 0,0.50841 -0.17639,0.52916 -4.49792,0.52916 h -4.49791 v 4.233336 4.233333 h 4.63021 c 4.45381,0 4.6302,0.02016 4.6302,0.529167 0,0.511074 -0.17639,0.529167 -5.15937,0.529167 h -5.15938 z m 17.4625,-0.0243 v -9.41697 l 3.90261,0.0904 c 3.70117,0.0857 3.96658,0.12802 5.1421,0.81904 1.50002,0.88179 2.19752,1.80878 2.61829,3.47977 0.67659,2.68705 -0.69626,5.45404 -3.30986,6.67107 -1.15834,0.53937 -1.74842,0.62509 -4.31824,0.62732 l -2.97656,0.003 v 3.57188 c 0,3.395485 -0.0261,3.571875 -0.52917,3.571875 -0.51926,0 -0.52917,-0.17639 -0.52917,-9.416975 z m 7.21713,1.19899 c 1.24359,-0.34535 2.80082,-1.68489 3.27334,-2.81573 0.46508,-1.11312 0.45757,-3.35221 -0.0143,-4.25911 -1.03055,-1.98069 -2.80622,-2.69884 -6.67298,-2.69884 h -2.74486 v 5.02708 5.02708 l 2.57968,-0.002 c 1.41883,-7.9e-4 3.02943,-0.12636 3.57911,-0.27901 z m -261.288239,-27.703943 -2.57472,-2.58442 v -27.649193 -27.64919 l 2.58442,-2.57473 2.58442,-2.57472 h 8.08168 8.08167 l 2.56307,2.60877 2.56307,2.60877 v 5.46102 5.46103 h -3.30729 -3.30729 v -4.7625 -4.76251 h -6.61459 -6.61458 v 26.19376 26.193753 h 6.61458 6.61459 v -4.762503 -4.7625 h 3.30729 3.30729 v 5.49506 5.495073 l -2.58442,2.57473 -2.58442,2.574723 h -8.07003 -8.07002 z m 40.81694,-0.72287 v -3.30729 l 1.65365,-0.001 1.65364,-10e-4 2.88125,-17.527593 c 2.81233,-17.1083 4.37536,-26.85848 5.87428,-36.64374 l 0.73965,-4.82864 h 3.49962 3.4996095 l 0.15144,0.7276 c 0.23931,1.14972 4.6045397,28.54202 5.1886997,32.55966 0.28966,1.99216 0.76456,5.1104 1.05533,6.92941 0.9674,6.05189 2.90699001,18.487013 2.90699001,18.637283 0,0.0815 0.77390999,0.14813 1.71978999,0.14813 h 1.7198 v 3.30729 3.307303 h -6.4823 -6.4822897 v -3.307303 -3.30729 h 1.41111 c 0.77612,0 1.46826,-0.0571 1.53811,-0.12699 0.0699,-0.0698 -0.0654,-1.349773 -0.30053,-2.844273 l -0.42753,-2.71728 -5.3374995,-0.0716 -5.3375,-0.0716 -0.13166,0.60077 c -0.32625,1.48861 -0.67491,3.80602 -0.67491,4.485823 0,0.72684 0.0358,0.74516 1.45521,0.74516 h 1.4552 v 3.30729 3.307303 h -6.61458 -6.61458 z m 20.4602595,-15.941153 c 0.11867,-0.19858 -3.7777195,-25.23615 -3.9596495,-25.4441 -0.053,-0.0606 -0.14849,-0.0582 -0.21211,0.005 -0.11845,0.11845 -0.83476,4.28401 -1.5877,9.23295 -0.23247,1.52797 -0.89681,5.73549 -1.47632,9.35003 -0.57951,3.61455 -1.05365,6.68041 -1.05365,6.81302 0,0.2884 8.1176195,0.3302 8.2894295,0.0427 z m 29.8105705,15.954353 v -3.29409 l 1.52135,-0.0793 1.52136,-0.0794 v -26.061453 -26.06147 l -1.52136,-0.0793 -1.52135,-0.0794 v -3.29408 -3.29409 h 6.48229 6.48229 v 3.29409 3.29408l -1.52135,0.0794 -1.52136,0.0793 v 26.06147 26.061453 h 6.35001 6.35 l 0.0748,-2.976563 0.0748,-2.97656 h 3.29862 3.29863 v 6.350003 6.350003 h -14.68438 -14.68437 z m 45.24375,0 v -3.29409 l 1.52136,-0.0793 1.52135,-0.0794 0.0674,-26.127603 0.0674,-26.12761 h -1.58879 -1.58879 v -3.30729 -3.30729 h 6.48229 6.4823 v 3.30729 3.30729 h -1.58751 -1.5875 v 26.19376 26.193753 h 1.5875 1.58751 v 3.30729 3.307293 h -6.4823 -6.48229 z m 34.060149,0.70967 -2.574729,-2.58442 v -4.030163 -4.03017 h 3.307289 3.3073 v 3.31192 3.311913 l 6.54843,-0.0708 6.54845,-0.0708 v -11.509373 -11.50938 l -6.77407,-0.0705 -6.77407,-0.0705 -3.08166,-2.93192 -3.081669,-2.93192 v -12.34835 -12.34834 l 2.584419,-2.57472 2.58442,-2.57473 h 8.07002 8.07003 l 2.57473,2.58442 2.57472,2.58442 v 3.89788 3.89787 h -3.30729 -3.30729 v -3.175 -3.175 h -6.61459 -6.61458 v 11.23283 11.23282 l 7.29507,0.0781 7.29508,0.0781 2.61597,2.77813 2.61596,2.77812 0.0109,12.83726 0.0108,12.837253 -2.58442,2.57473 -2.58442,2.574723 h -8.07003 -8.07002 l -2.57472,-2.584423 z m 50.52299,-0.39241 c 0.0268,-1.63696 0.0566,-3.12512 0.0661,-3.30702 0.0116,-0.22155 0.48844,-0.33073 1.4443,-0.33073 0.91476,0 1.4608,-0.11871 1.52135,-0.33073 0.052,-0.1819 0.0635,-11.973393 0.0257,-26.203303 l -0.0687,-25.87258 -2.57709,0.0757 -2.5771,0.0757 -0.0745,3.10886 -0.0746,3.10885 h -3.31039 -3.31039 l 0.0369,-6.48229 0.037,-6.48229 h 15.18808 15.18809 v 6.48229 6.48229 h -3.30729 -3.3073 v -3.175 -3.175 h -2.51354 -2.51354 v 26.19375 26.193753 h 1.5875 1.5875 v 3.3073 3.307293 l -6.54844,-2.6e-4 -6.54843,-2.7e-4 z m 38.97729,-0.31726 v -3.29409 l 1.52135,-0.0793 1.52136,-0.0794 v -26.061453 -26.06147 l -1.52136,-0.0793 -1.52135,-0.0794 v -3.29408 -3.29409 h 14.68437 14.68438 v 6.61458 6.61459 h -3.3073 -3.30729 v -3.312 -3.312 l -6.41614,0.0709 -6.41615,0.0708 v 11.2448 11.24479 l 4.0349,0.073 4.03489,0.073 v 3.3004 3.3004 h -3.94044 c -3.28022,0 -3.96629,0.0673 -4.09464,0.40185 -0.22971,0.5986 -0.16536,21.926853 0.0673,22.303293 0.15049,0.24353 1.73368,0.306 6.399,0.25246 l 6.199,-0.0711 0.0743,-3.241153 0.0743,-3.24114 h 3.29914 3.29915 v 6.614583 6.614593 h -14.68438 -14.68437 z m 46.30208,-0.0132 v -3.30729 h 1.5875 1.5875 v -26.193753 -26.19375 h -1.5875 -1.5875 v -3.3073 -3.30729 l 12.10469,0.007 12.10468,0.007 2.71198,2.65742 2.71198,2.65742 v 14.57598 14.57598 l -2.43652,2.47151 -2.43652,2.47151 h -7.34658 -7.34658 l -0.0726,9.5261 c -0.0399,5.23935 -0.0329,9.644673 0.0156,9.789583 0.0485,0.14492 0.79267,0.26349 1.65365,0.26349 h 1.56546 v 3.30729 3.307293 h -6.61458 -6.61459 v -3.307293 z m 22.75417,-42.730213 v -12.96458 h -6.34495 -6.34495 l -0.0712,12.52229 c -0.0391,6.88726 -0.0327,12.72132 0.0143,12.96458 0.0771,0.39863 0.71054,0.4423 6.41615,0.4423 h 6.3306 v -12.96459 z"
       style="fill:#fff;fill-opacity:1;stroke-width:0.264583"
       sodipodi:nodetypes="sssssssssssssssssssssssssscsssssssssssscssssscsssccssscccssscccsssccccsssscssscssssscsssssccssssssssccssscsssscsssccccccscssssssscsssscssssscsssccssscccssscccsssccccssssscsssccssscccccccccccccccccccccccccccccccccccccccccccsscccssssscccccccssscccsssccccccsssssssscccccccccccccccccccccccccccccccccccccccccccccccccccccccccccccccccccccccccccccccccccccccccccccccccccccssssccccccccccccccccccccccccccccccccccccccccccccccccccccccssssccccccccccccccccccccccccccccccssscccccccccccccsccc" />
  </g>
</svg>
